<?xml version="1.0" standalone="no"?>
<!DOCTYPE svg PUBLIC "-//W3C//DTD SVG 20010904//EN"
 "http://www.w3.org/TR/2001/REC-SVG-20010904/DTD/svg10.dtd">
<svg version="1.0" xmlns="http://www.w3.org/2000/svg"
 width="512.000000pt" height="512.000000pt" viewBox="0 0 512.000000 512.000000"
 preserveAspectRatio="xMidYMid meet">

<g transform="translate(0.000000,512.000000) scale(0.100000,-0.100000)"
fill="#000000" stroke="none">
<path d="M2440 5104 c-168 -44 -305 -172 -354 -328 l-18 -56 -316 0 c-192 0
-332 -4 -355 -11 -21 -6 -56 -28 -77 -49 l-39 -39 -248 -3 -248 -3 -57 -28
c-64 -32 -111 -80 -142 -146 l-21 -46 0 -2085 0 -2085 21 -46 c31 -66 78 -114
142 -146 l57 -28 1775 0 1775 0 57 28 c64 32 111 80 142 146 l21 46 0 2085 0
2085 -21 46 c-31 66 -78 114 -142 146 l-57 28 -248 3 -248 3 -39 39 c-21 21
-56 43 -77 49 -23 7 -163 11 -355 11 l-316 0 -21 61 c-82 243 -347 388 -591
323z m254 -218 c90 -44 150 -129 162 -233 3 -26 10 -61 16 -76 21 -55 34 -57
428 -57 l360 0 0 -200 0 -200 -1100 0 -1100 0 0 200 0 200 360 0 c257 0 367 3
385 12 31 14 55 56 55 96 0 46 28 126 59 169 84 116 243 154 375 89z m-1434
-566 l0 -100 -110 0 c-63 0 -120 -5 -135 -12 -58 -26 -55 93 -55 -1897 0
-1398 3 -1836 12 -1856 26 -58 -66 -55 1588 -55 1654 0 1562 -3 1588 55 17 38
17 3672 0 3710 -20 44 -55 55 -178 55 l-110 0 0 100 0 100 210 0 c229 0 255
-5 278 -55 17 -38 17 -4072 0 -4110 -26 -58 84 -55 -1788 -55 -1872 0 -1762
-3 -1788 55 -19 40 -17 4080 2 4114 26 46 47 50 274 51 l212 0 0 -100z m59
-339 c22 -22 57 -44 78 -50 53 -15 2273 -15 2326 0 21 6 56 28 78 50 37 37 42
39 99 39 l60 0 0 -1710 0 -1710 -1400 0 -1400 0 0 1710 0 1710 60 0 c57 0 62
-2 99 -39z"/>
<path d="M2511 4706 c-87 -48 -50 -186 49 -186 51 0 100 49 100 99 0 75 -83
124 -149 87z"/>
<path d="M1965 3698 c-11 -6 -73 -62 -137 -126 l-117 -116 -50 47 c-27 25 -61
49 -75 53 -75 18 -140 -48 -121 -123 9 -37 181 -209 218 -218 53 -14 80 4 240
163 157 156 187 192 187 231 0 73 -83 124 -145 89z"/>
<path d="M2511 3566 c-67 -37 -65 -143 4 -174 19 -9 164 -12 545 -12 381 0
526 3 545 12 29 13 55 55 55 88 0 33 -26 75 -55 88 -40 18 -1061 16 -1094 -2z"/>
<path d="M1965 2898 c-11 -6 -73 -62 -137 -126 l-117 -116 -50 47 c-27 25 -61
49 -75 53 -75 18 -140 -48 -121 -123 9 -37 181 -209 218 -218 53 -14 80 4 240
163 157 156 187 192 187 231 0 73 -83 124 -145 89z"/>
<path d="M2511 2746 c-67 -37 -65 -143 4 -174 19 -9 164 -12 545 -12 381 0
526 3 545 12 29 13 55 55 55 88 0 33 -26 75 -55 88 -40 18 -1061 16 -1094 -2z"/>
<path d="M1965 2098 c-11 -6 -73 -62 -137 -126 l-117 -116 -50 47 c-27 25 -61
49 -75 53 -75 18 -140 -48 -121 -123 9 -37 181 -209 218 -218 53 -14 80 4 240
163 157 156 187 192 187 231 0 73 -83 124 -145 89z"/>
<path d="M2511 1946 c-67 -37 -65 -143 4 -174 37 -17 1053 -17 1090 0 29 13
55 55 55 88 0 33 -26 75 -55 88 -40 18 -1061 16 -1094 -2z"/>
<path d="M1965 1298 c-11 -6 -73 -62 -137 -126 l-117 -116 -50 47 c-27 25 -61
49 -75 53 -75 18 -140 -48 -121 -123 9 -37 181 -209 218 -218 53 -14 80 4 240
163 157 156 187 192 187 231 0 73 -83 124 -145 89z"/>
<path d="M2511 1146 c-67 -37 -65 -143 4 -174 37 -17 1053 -17 1090 0 29 13
55 55 55 88 0 33 -26 75 -55 88 -40 18 -1061 16 -1094 -2z"/>
</g>
</svg>
